<?xml version="1.0" standalone="no"?>
 <!DOCTYPE svg PUBLIC "-//W3C//DTD SVG 1.1//EN"
 "http://www.w3.org/Graphics/SVG/1.1/DTD/svg11.dtd">
<svg
  xmlns:svg="http://www.w3.org/2000/svg"
  xmlns="http://www.w3.org/2000/svg"
  xmlns:xlink="http://www.w3.org/1999/xlink"
  version="1.1"
  width="29.700220cm" height="21.000720cm" viewBox="0 0 116930 82680">
<title>SVG Picture created as exrack.svg date 2022/01/24 16:47:20 </title>
  <desc>Picture generated by Eeschema-SVG </desc>
<g style="fill:#000000; fill-opacity:1.000000;stroke:#000000; stroke-opacity:1.000000;
stroke-linecap:round; stroke-linejoin:round;"
 transform="translate(0 0) scale(1 1)">
</g>
<g style="fill:#000000; fill-opacity:0.0;
stroke:#000000; stroke-width:60.000000; stroke-opacity:1;
stroke-linecap:round; stroke-linejoin:round;">
<g >
</g>
<g style="fill:#840000; fill-opacity:0.0;
stroke:#840000; stroke-width:60.000000; stroke-opacity:1;
stroke-linecap:round; stroke-linejoin:round;">
</g>
<g style="fill:#FFFFC2; fill-opacity:0.0;
stroke:#FFFFC2; stroke-width:60.000000; stroke-opacity:1;
stroke-linecap:round; stroke-linejoin:round;">
</g>
<g style="fill:#FFFFC2; fill-opacity:0.6;
stroke:#FFFFC2; stroke-width:0.039370; stroke-opacity:1;
stroke-linecap:round; stroke-linejoin:round;">
<rect x="56000.000000" y="26000.000000" width="4000.000000" height="4000.000000" rx="0.000000" />
</g>
<g style="fill:#840000; fill-opacity:0.6;
stroke:#840000; stroke-width:0.039370; stroke-opacity:1;
stroke-linecap:round; stroke-linejoin:round;">
</g>
<g style="fill:#840000; fill-opacity:0.0;
stroke:#840000; stroke-width:98.425197; stroke-opacity:1;
stroke-linecap:round; stroke-linejoin:round;">
<rect x="56000.000000" y="26000.000000" width="4000.000000" height="4000.000000" rx="0.000000" />
<rect x="56000.000000" y="26000.000000" width="4000.000000" height="4000.000000" rx="0.000000" />
</g>
<g style="fill:#840000; fill-opacity:0.0;
stroke:#840000; stroke-width:60.000000; stroke-opacity:1;
stroke-linecap:round; stroke-linejoin:round;">
<path d="M56000 28000
L55000 28000
" />
</g>
<g style="fill:#006464; fill-opacity:0.0;
stroke:#006464; stroke-width:60.000000; stroke-opacity:1;
stroke-linecap:round; stroke-linejoin:round;">
<text x="56200.000000" y="28250.000000"
textLength="1558.582677" font-size="666.653543" lengthAdjust="spacingAndGlyphs"
text-anchor="start" opacity="0">VCC</text>
<g class="stroked-text"><desc>VCC</desc>
<path d="M56277 27726
L56444 28226
L56610 27726
" />
<path d="M57063 28178
L57039 28202
L56968 28226
L56920 28226
L56849 28202
L56801 28154
L56777 28107
L56753 28011
L56753 27940
L56777 27845
L56801 27797
L56849 27750
L56920 27726
L56968 27726
L57039 27750
L57063 27773
" />
<path d="M57563 28178
L57539 28202
L57468 28226
L57420 28226
L57349 28202
L57301 28154
L57277 28107
L57253 28011
L57253 27940
L57277 27845
L57301 27797
L57349 27750
L57420 27726
L57468 27726
L57539 27750
L57563 27773
" />
</g></g>
<g style="fill:#A90000; fill-opacity:0.0;
stroke:#A90000; stroke-width:60.000000; stroke-opacity:1;
stroke-linecap:round; stroke-linejoin:round;">
<text x="55500.000000" y="27900.000000"
textLength="536.181102" font-size="666.653543" lengthAdjust="spacingAndGlyphs"
text-anchor="middle" opacity="0">1</text>
<g class="stroked-text"><desc>1</desc>
<path d="M55642 27876
L55357 27876
" />
<path d="M55500 27876
L55500 27376
L55452 27447
L55404 27495
L55357 27519
" />
</g></g>
<g style="fill:#840000; fill-opacity:0.0;
stroke:#840000; stroke-width:60.000000; stroke-opacity:1;
stroke-linecap:round; stroke-linejoin:round;">
<path d="M58000 26000
L58000 25000
" />
</g>
<g style="fill:#006464; fill-opacity:0.0;
stroke:#006464; stroke-width:60.000000; stroke-opacity:1;
stroke-linecap:round; stroke-linejoin:round;">
<g transform="rotate(-90.000000 58000.000000 26200.000000)">
<text x="58000.000000" y="26450.000000"
textLength="821.889764" font-size="666.653543" lengthAdjust="spacingAndGlyphs"
text-anchor="end" opacity="0">IO</text>
</g>
<g class="stroked-text"><desc>IO</desc>
<path d="M58226 26872
L57726 26872
" />
<path d="M57726 26539
L57726 26444
L57750 26396
L57797 26349
L57892 26325
L58059 26325
L58154 26349
L58202 26396
L58226 26444
L58226 26539
L58202 26587
L58154 26634
L58059 26658
L57892 26658
L57797 26634
L57750 26587
L57726 26539
" />
</g></g>
<g style="fill:#A90000; fill-opacity:0.0;
stroke:#A90000; stroke-width:60.000000; stroke-opacity:1;
stroke-linecap:round; stroke-linejoin:round;">
<g transform="rotate(-90.000000 57900.000000 25500.000000)">
<text x="57900.000000" y="25500.000000"
textLength="536.181102" font-size="666.653543" lengthAdjust="spacingAndGlyphs"
text-anchor="middle" opacity="0">2</text>
</g>
<g class="stroked-text"><desc>2</desc>
<path d="M57423 25642
L57400 25619
L57376 25571
L57376 25452
L57400 25404
L57423 25380
L57471 25357
L57519 25357
L57590 25380
L57876 25666
L57876 25357
" />
</g></g>
<g style="fill:#840000; fill-opacity:0.0;
stroke:#840000; stroke-width:60.000000; stroke-opacity:1;
stroke-linecap:round; stroke-linejoin:round;">
<path d="M58000 30000
L58000 31000
" />
<path d="M57850 30850
L58150 31150
" />
<path d="M58150 30850
L57850 31150
" />
</g>
<g style="fill:#006464; fill-opacity:0.0;
stroke:#006464; stroke-width:60.000000; stroke-opacity:1;
stroke-linecap:round; stroke-linejoin:round;">
<g transform="rotate(-90.000000 58000.000000 29800.000000)">
<text x="58000.000000" y="30050.000000"
textLength="1083.818898" font-size="666.653543" lengthAdjust="spacingAndGlyphs"
text-anchor="start" opacity="0">NC</text>
</g>
<g class="stroked-text"><desc>NC</desc>
<path d="M58226 29650
L57726 29650
L58226 29365
L57726 29365
" />
<path d="M58178 28841
L58202 28865
L58226 28936
L58226 28984
L58202 29055
L58154 29103
L58107 29127
L58011 29150
L57940 29150
L57845 29127
L57797 29103
L57750 29055
L57726 28984
L57726 28936
L57750 28865
L57773 28841
" />
</g></g>
<g style="fill:#A90000; fill-opacity:0.0;
stroke:#A90000; stroke-width:60.000000; stroke-opacity:1;
stroke-linecap:round; stroke-linejoin:round;">
<g transform="rotate(-90.000000 57900.000000 30500.000000)">
<text x="57900.000000" y="30500.000000"
textLength="536.181102" font-size="666.653543" lengthAdjust="spacingAndGlyphs"
text-anchor="middle" opacity="0">3</text>
</g>
<g class="stroked-text"><desc>3</desc>
<path d="M57376 30666
L57376 30357
L57566 30523
L57566 30452
L57590 30404
L57614 30380
L57661 30357
L57780 30357
L57828 30380
L57852 30404
L57876 30452
L57876 30595
L57852 30642
L57828 30666
" />
</g></g>
<g style="fill:#840000; fill-opacity:0.0;
stroke:#840000; stroke-width:60.000000; stroke-opacity:1;
stroke-linecap:round; stroke-linejoin:round;">
<path d="M60000 28000
L61000 28000
" />
</g>
<g style="fill:#006464; fill-opacity:0.0;
stroke:#006464; stroke-width:60.000000; stroke-opacity:1;
stroke-linecap:round; stroke-linejoin:round;">
<text x="59800.000000" y="28250.000000"
textLength="1583.818898" font-size="666.653543" lengthAdjust="spacingAndGlyphs"
text-anchor="end" opacity="0">GND</text>
<g class="stroked-text"><desc>GND</desc>
<path d="M58627 27750
L58579 27726
L58508 27726
L58436 27750
L58389 27797
L58365 27845
L58341 27940
L58341 28011
L58365 28107
L58389 28154
L58436 28202
L58508 28226
L58555 28226
L58627 28202
L58650 28178
L58650 28011
L58555 28011
" />
<path d="M58865 28226
L58865 27726
L59150 28226
L59150 27726
" />
<path d="M59389 28226
L59389 27726
L59508 27726
L59579 27750
L59627 27797
L59650 27845
L59674 27940
L59674 28011
L59650 28107
L59627 28154
L59579 28202
L59508 28226
L59389 28226
" />
</g></g>
<g style="fill:#A90000; fill-opacity:0.0;
stroke:#A90000; stroke-width:60.000000; stroke-opacity:1;
stroke-linecap:round; stroke-linejoin:round;">
<text x="60500.000000" y="27900.000000"
textLength="536.181102" font-size="666.653543" lengthAdjust="spacingAndGlyphs"
text-anchor="middle" opacity="0">4</text>
<g class="stroked-text"><desc>4</desc>
<path d="M60595 27542
L60595 27876
" />
<path d="M60476 27352
L60357 27709
L60666 27709
" />
</g></g>
<g style="fill:#006464; fill-opacity:0.0;
stroke:#006464; stroke-width:60.000000; stroke-opacity:1;
stroke-linecap:round; stroke-linejoin:round;">
<text x="59499.960630" y="25749.960630"
textLength="2417.125984" font-size="666.653543" lengthAdjust="spacingAndGlyphs"
text-anchor="middle" opacity="0">DHT22</text>
<g class="stroked-text"><desc>DHT22</desc>
<path d="M58440 25726
L58440 25226
L58559 25226
L58630 25249
L58678 25297
L58702 25345
L58726 25440
L58726 25511
L58702 25607
L58678 25654
L58630 25702
L58559 25726
L58440 25726
" />
<path d="M58940 25726
L58940 25226
" />
<path d="M58940 25464
L59226 25464
" />
<path d="M59226 25726
L59226 25226
" />
<path d="M59392 25226
L59678 25226
" />
<path d="M59535 25726
L59535 25226
" />
<path d="M59821 25273
L59845 25249
L59892 25226
L60011 25226
L60059 25249
L60083 25273
L60107 25321
L60107 25368
L60083 25440
L59797 25726
L60107 25726
" />
<path d="M60297 25273
L60321 25249
L60368 25226
L60488 25226
L60535 25249
L60559 25273
L60583 25321
L60583 25368
L60559 25440
L60273 25726
L60583 25726
" />
</g></g>
</g>
<g style="fill:#006464; fill-opacity:0.0;
stroke:#006464; stroke-width:60.000000; stroke-opacity:1;
stroke-linecap:round; stroke-linejoin:round;">
<g >
</g>
<g style="fill:#840000; fill-opacity:0.0;
stroke:#840000; stroke-width:60.000000; stroke-opacity:1;
stroke-linecap:round; stroke-linejoin:round;">
<path style="fill:#840000; fill-opacity:0.0;
stroke:#840000; stroke-width:60.000000; stroke-opacity:1;
stroke-linecap:round; stroke-linejoin:round;fill:none"
d="M 42200.000000,36500.000000
42500.000000,36000.000000
" />
<path style="fill:#840000; fill-opacity:0.0;
stroke:#840000; stroke-width:60.000000; stroke-opacity:1;
stroke-linecap:round; stroke-linejoin:round;fill:none"
d="M 42500.000000,37000.000000
42500.000000,36000.000000
" />
<path style="fill:#840000; fill-opacity:0.0;
stroke:#840000; stroke-width:60.000000; stroke-opacity:1;
stroke-linecap:round; stroke-linejoin:round;fill:none"
d="M 42500.000000,36000.000000
42800.000000,36500.000000
" />
</g>
<g style="fill:#006464; fill-opacity:0.0;
stroke:#006464; stroke-width:60.000000; stroke-opacity:1;
stroke-linecap:round; stroke-linejoin:round;">
<text x="42500.000000" y="35250.000000"
textLength="1583.818898" font-size="666.653543" lengthAdjust="spacingAndGlyphs"
text-anchor="middle" opacity="0">+5V</text>
<g class="stroked-text"><desc>+5V</desc>
<path d="M41857 35035
L42238 35035
" />
<path d="M42047 35226
L42047 34845
" />
<path d="M42714 34726
L42476 34726
L42452 34964
L42476 34940
L42523 34916
L42642 34916
L42690 34940
L42714 34964
L42738 35011
L42738 35130
L42714 35178
L42690 35202
L42642 35226
L42523 35226
L42476 35202
L42452 35178
" />
<path d="M42880 34726
L43047 35226
L43214 34726
" />
</g></g>
</g>
<g style="fill:#006464; fill-opacity:0.0;
stroke:#006464; stroke-width:60.000000; stroke-opacity:1;
stroke-linecap:round; stroke-linejoin:round;">
<g >
</g>
<g style="fill:#840000; fill-opacity:0.0;
stroke:#840000; stroke-width:60.000000; stroke-opacity:1;
stroke-linecap:round; stroke-linejoin:round;">
</g>
<g style="fill:#FFFFC2; fill-opacity:0.0;
stroke:#FFFFC2; stroke-width:60.000000; stroke-opacity:1;
stroke-linecap:round; stroke-linejoin:round;">
</g>
<g style="fill:#FFFFC2; fill-opacity:0.6;
stroke:#FFFFC2; stroke-width:0.039370; stroke-opacity:1;
stroke-linecap:round; stroke-linejoin:round;">
<circle cx="45500.000000" cy="43000.000000" r="1000.000000" />
</g>
<g style="fill:#840000; fill-opacity:0.6;
stroke:#840000; stroke-width:0.039370; stroke-opacity:1;
stroke-linecap:round; stroke-linejoin:round;">
</g>
<g style="fill:#840000; fill-opacity:0.0;
stroke:#840000; stroke-width:100.000000; stroke-opacity:1;
stroke-linecap:round; stroke-linejoin:round;">
<circle cx="45500.000000" cy="43000.000000" r="1000.000000" />
</g>
<g style="fill:#840000; fill-opacity:0.0;
stroke:#840000; stroke-width:60.000000; stroke-opacity:1;
stroke-linecap:round; stroke-linejoin:round;">
<path style="fill:#840000; fill-opacity:0.0;
stroke:#840000; stroke-width:60.000000; stroke-opacity:1;
stroke-linecap:round; stroke-linejoin:round;fill:none"
d="M 45200.000000,42200.000000
45200.000000,42450.000000
45800.000000,42550.000000
45800.000000,42950.000000
45200.000000,43050.000000
45200.000000,43450.000000
45800.000000,43550.000000
45800.000000,43800.000000
" />
</g>
<g style="fill:#840000; fill-opacity:0.0;
stroke:#840000; stroke-width:100.000000; stroke-opacity:1;
stroke-linecap:round; stroke-linejoin:round;">
<circle cx="45500.000000" cy="43000.000000" r="1000.000000" />
</g>
<g style="fill:#840000; fill-opacity:0.0;
stroke:#840000; stroke-width:62.519685; stroke-opacity:1;
stroke-linecap:round; stroke-linejoin:round;">
<g transform="rotate(-90.000000 46249.960630 43000.000000)">
<text x="46249.960630" y="43250.000000"
textLength="679.055118" font-size="666.653543" lengthAdjust="spacingAndGlyphs"
text-anchor="middle" opacity="0">+</text>
</g>
<g class="stroked-text"><desc>+</desc>
<path d="M46285 43190
L46285 42809
" />
<path d="M46476 43000
L46095 43000
" />
</g></g>
<g style="fill:#840000; fill-opacity:0.0;
stroke:#840000; stroke-width:60.000000; stroke-opacity:1;
stroke-linecap:round; stroke-linejoin:round;">
<path d="M46500 43000
L47500 43000
" />
<path d="M44500 43000
L43500 43000
" />
</g>
<g style="fill:#006464; fill-opacity:0.0;
stroke:#006464; stroke-width:60.000000; stroke-opacity:1;
stroke-linecap:round; stroke-linejoin:round;">
<text x="45598.110236" y="41250.000000"
textLength="2181.574803" font-size="666.653543" lengthAdjust="spacingAndGlyphs"
text-anchor="middle" opacity="0">PWM1</text>
<g class="stroked-text"><desc>PWM1</desc>
<path d="M44657 41226
L44657 40726
L44848 40726
L44895 40750
L44919 40773
L44943 40821
L44943 40892
L44919 40940
L44895 40964
L44848 40988
L44657 40988
" />
<path d="M45110 40726
L45229 41226
L45324 40869
L45419 41226
L45538 40726
" />
<path d="M45729 41226
L45729 40726
L45895 41083
L46062 40726
L46062 41226
" />
<path d="M46562 41226
L46276 41226
" />
<path d="M46419 41226
L46419 40726
L46371 40797
L46324 40845
L46276 40869
" />
</g></g>
</g>
<g style="fill:#006464; fill-opacity:0.0;
stroke:#006464; stroke-width:60.000000; stroke-opacity:1;
stroke-linecap:round; stroke-linejoin:round;">
<g >
</g>
<g style="fill:#840000; fill-opacity:0.0;
stroke:#840000; stroke-width:60.000000; stroke-opacity:1;
stroke-linecap:round; stroke-linejoin:round;">
</g>
<g style="fill:#840000; fill-opacity:0.0;
stroke:#840000; stroke-width:100.000000; stroke-opacity:1;
stroke-linecap:round; stroke-linejoin:round;">
<rect x="50500.000000" y="42600.000000" width="2000.000000" height="800.000000" rx="0.000000" />
</g>
<g style="fill:#840000; fill-opacity:0.0;
stroke:#840000; stroke-width:60.000000; stroke-opacity:1;
stroke-linecap:round; stroke-linejoin:round;">
<path d="M52500 43000
L53000 43000
" />
<path d="M50500 43000
L50000 43000
" />
</g>
<g style="fill:#006464; fill-opacity:0.0;
stroke:#006464; stroke-width:60.000000; stroke-opacity:1;
stroke-linecap:round; stroke-linejoin:round;">
<text x="51500.000000" y="41250.000000"
textLength="1036.181102" font-size="666.653543" lengthAdjust="spacingAndGlyphs"
text-anchor="middle" opacity="0">R1</text>
<g class="stroked-text"><desc>R1</desc>
<path d="M51416 41226
L51250 40988
" />
<path d="M51130 41226
L51130 40726
L51321 40726
L51369 40750
L51392 40773
L51416 40821
L51416 40892
L51392 40940
L51369 40964
L51321 40988
L51130 40988
" />
<path d="M51892 41226
L51607 41226
" />
<path d="M51750 41226
L51750 40726
L51702 40797
L51654 40845
L51607 40869
" />
</g><text x="51500.000000" y="42250.000000"
textLength="940.944882" font-size="666.653543" lengthAdjust="spacingAndGlyphs"
text-anchor="middle" opacity="0">1k</text>
<g class="stroked-text"><desc>1k</desc>
<path d="M51440 42226
L51154 42226
" />
<path d="M51297 42226
L51297 41726
L51250 41797
L51202 41845
L51154 41869
" />
<path d="M51654 42226
L51654 41726
" />
<path d="M51702 42035
L51845 42226
" />
<path d="M51845 41892
L51654 42083
" />
</g></g>
</g>
<g style="fill:#006464; fill-opacity:0.0;
stroke:#006464; stroke-width:60.000000; stroke-opacity:1;
stroke-linecap:round; stroke-linejoin:round;">
<g >
</g>
<g style="fill:#840000; fill-opacity:0.0;
stroke:#840000; stroke-width:60.000000; stroke-opacity:1;
stroke-linecap:round; stroke-linejoin:round;">
<path style="fill:#840000; fill-opacity:0.0;
stroke:#840000; stroke-width:60.000000; stroke-opacity:1;
stroke-linecap:round; stroke-linejoin:round;fill:none"
d="M 42500.000000,43000.000000
42500.000000,43500.000000
43000.000000,43500.000000
42500.000000,44000.000000
42000.000000,43500.000000
42500.000000,43500.000000
" />
</g>
<g style="fill:#006464; fill-opacity:0.0;
stroke:#006464; stroke-width:60.000000; stroke-opacity:1;
stroke-linecap:round; stroke-linejoin:round;">
<text x="42500.000000" y="45250.000000"
textLength="1583.818898" font-size="666.653543" lengthAdjust="spacingAndGlyphs"
text-anchor="middle" opacity="0">GND</text>
<g class="stroked-text"><desc>GND</desc>
<path d="M42119 44750
L42071 44726
L42000 44726
L41928 44750
L41880 44797
L41857 44845
L41833 44940
L41833 45011
L41857 45107
L41880 45154
L41928 45202
L42000 45226
L42047 45226
L42119 45202
L42142 45178
L42142 45011
L42047 45011
" />
<path d="M42357 45226
L42357 44726
L42642 45226
L42642 44726
" />
<path d="M42880 45226
L42880 44726
L43000 44726
L43071 44750
L43119 44797
L43142 44845
L43166 44940
L43166 45011
L43142 45107
L43119 45154
L43071 45202
L43000 45226
L42880 45226
" />
</g></g>
</g>
<g style="fill:#006464; fill-opacity:0.0;
stroke:#006464; stroke-width:60.000000; stroke-opacity:1;
stroke-linecap:round; stroke-linejoin:round;">
<g >
</g>
<g style="fill:#840000; fill-opacity:0.0;
stroke:#840000; stroke-width:60.000000; stroke-opacity:1;
stroke-linecap:round; stroke-linejoin:round;">
<path d="M65199.999695 52599.650934 A200.000000 200.000000 0.0 0 0 64800.000305 52599.650934" />
<path d="M64800.000000 52600.000000 A200.000000 200.000000 0.0 0 0 65000.000000 52800.000000" />
<path style="fill:#840000; fill-opacity:0.0;
stroke:#840000; stroke-width:60.000000; stroke-opacity:1;
stroke-linecap:round; stroke-linejoin:round;fill:none"
d="M 65000.000000,52800.000000
64900.000000,52850.000000
" />
<path style="fill:#840000; fill-opacity:0.0;
stroke:#840000; stroke-width:60.000000; stroke-opacity:1;
stroke-linecap:round; stroke-linejoin:round;fill:none"
d="M 65000.000000,52800.000000
64950.000000,52700.000000
" />
<path style="fill:#840000; fill-opacity:0.0;
stroke:#840000; stroke-width:60.000000; stroke-opacity:1;
stroke-linecap:round; stroke-linejoin:round;fill:none"
d="M 65400.000000,53000.000000
65400.000000,52400.000000
65700.000000,52400.000000
" />
<path d="M67000.106967 53499.842998 A1128.897638 1128.897638 0.0 0 0 66000.805646 51799.975607" />
<path style="fill:#840000; fill-opacity:0.0;
stroke:#840000; stroke-width:60.000000; stroke-opacity:1;
stroke-linecap:round; stroke-linejoin:round;fill:none"
d="M 65400.000000,53000.000000
65000.000000,53000.000000
" />
<path style="fill:#840000; fill-opacity:0.0;
stroke:#840000; stroke-width:60.000000; stroke-opacity:1;
stroke-linecap:round; stroke-linejoin:round;fill:none"
d="M 67000.000000,50000.000000
67000.000000,50200.000000
" />
<path style="fill:#840000; fill-opacity:0.0;
stroke:#840000; stroke-width:60.000000; stroke-opacity:1;
stroke-linecap:round; stroke-linejoin:round;fill:none"
d="M 67000.000000,51120.000000
67000.000000,50960.000000
" />
<path style="fill:#840000; fill-opacity:0.0;
stroke:#840000; stroke-width:60.000000; stroke-opacity:1;
stroke-linecap:round; stroke-linejoin:round;fill:none"
d="M 67000.000000,53680.000000
67000.000000,53820.000000
" />
<path style="fill:#840000; fill-opacity:0.0;
stroke:#840000; stroke-width:60.000000; stroke-opacity:1;
stroke-linecap:round; stroke-linejoin:round;fill:none"
d="M 67000.000000,53800.000000
67000.000000,54000.000000
" />
<path style="fill:#840000; fill-opacity:0.0;
stroke:#840000; stroke-width:60.000000; stroke-opacity:1;
stroke-linecap:round; stroke-linejoin:round;fill:none"
d="M 66000.000000,51600.000000
65400.000000,51600.000000
65400.000000,51000.000000
65000.000000,51000.000000
" />
<path style="fill:#840000; fill-opacity:0.0;
stroke:#840000; stroke-width:60.000000; stroke-opacity:1;
stroke-linecap:round; stroke-linejoin:round;fill:none"
d="M 64900.000000,50700.000000
65000.000000,50700.000000
65000.000000,50800.000000
65100.000000,50800.000000
65100.000000,50700.000000
65300.000000,50700.000000
65300.000000,50800.000000
65400.000000,50800.000000
65400.000000,50700.000000
65600.000000,50700.000000
" />
</g>
<g style="fill:#840000; fill-opacity:0.0;
stroke:#840000; stroke-width:100.000000; stroke-opacity:1;
stroke-linecap:round; stroke-linejoin:round;">
<circle cx="67000.000000" cy="52400.000000" r="1280.000000" />
</g>
<g style="fill:#840000; fill-opacity:0.0;
stroke:#840000; stroke-width:60.000000; stroke-opacity:1;
stroke-linecap:round; stroke-linejoin:round;">
<path d="M67999.337655 51800.043775 A1149.645669 1149.645669 0.0 0 0 67000.000753 53499.971691" />
<path d="M66000.307401 51800.608763 A1118.031496 1118.031496 0.0 0 0 67999.692599 51800.608763" />
<path d="M67000 51000
L67000 50000
" />
</g>
<g style="fill:#006464; fill-opacity:0.0;
stroke:#006464; stroke-width:60.000000; stroke-opacity:1;
stroke-linecap:round; stroke-linejoin:round;">
<g transform="rotate(-90.000000 66900.000000 50500.000000)">
<text x="66900.000000" y="50500.000000"
textLength="679.055118" font-size="666.653543" lengthAdjust="spacingAndGlyphs"
text-anchor="middle" opacity="0">-</text>
</g>
<g class="stroked-text"><desc>-</desc>
<path d="M66685 50690
L66685 50309
" />
</g></g>
<g style="fill:#A90000; fill-opacity:0.0;
stroke:#A90000; stroke-width:60.000000; stroke-opacity:1;
stroke-linecap:round; stroke-linejoin:round;">
<g transform="rotate(-90.000000 67100.000000 50500.000000)">
<text x="67100.000000" y="51000.000000"
textLength="536.181102" font-size="666.653543" lengthAdjust="spacingAndGlyphs"
text-anchor="middle" opacity="0">1</text>
</g>
<g class="stroked-text"><desc>1</desc>
<path d="M67576 50357
L67576 50642
" />
<path d="M67576 50500
L67076 50500
L67147 50547
L67195 50595
L67219 50642
" />
</g></g>
<g style="fill:#840000; fill-opacity:0.0;
stroke:#840000; stroke-width:60.000000; stroke-opacity:1;
stroke-linecap:round; stroke-linejoin:round;">
<path d="M67000 54000
L67000 55000
" />
</g>
<g style="fill:#006464; fill-opacity:0.0;
stroke:#006464; stroke-width:60.000000; stroke-opacity:1;
stroke-linecap:round; stroke-linejoin:round;">
<g transform="rotate(-90.000000 66900.000000 54500.000000)">
<text x="66900.000000" y="54500.000000"
textLength="679.055118" font-size="666.653543" lengthAdjust="spacingAndGlyphs"
text-anchor="middle" opacity="0">+</text>
</g>
<g class="stroked-text"><desc>+</desc>
<path d="M66685 54690
L66685 54309
" />
<path d="M66876 54500
L66495 54500
" />
</g></g>
<g style="fill:#A90000; fill-opacity:0.0;
stroke:#A90000; stroke-width:60.000000; stroke-opacity:1;
stroke-linecap:round; stroke-linejoin:round;">
<g transform="rotate(-90.000000 67100.000000 54500.000000)">
<text x="67100.000000" y="55000.000000"
textLength="536.181102" font-size="666.653543" lengthAdjust="spacingAndGlyphs"
text-anchor="middle" opacity="0">2</text>
</g>
<g class="stroked-text"><desc>2</desc>
<path d="M67123 54642
L67100 54619
L67076 54571
L67076 54452
L67100 54404
L67123 54380
L67171 54357
L67219 54357
L67290 54380
L67576 54666
L67576 54357
" />
</g></g>
<g style="fill:#840000; fill-opacity:0.0;
stroke:#840000; stroke-width:60.000000; stroke-opacity:1;
stroke-linecap:round; stroke-linejoin:round;">
<path d="M65000 53000
L64000 53000
" />
</g>
<g style="fill:#006464; fill-opacity:0.0;
stroke:#006464; stroke-width:60.000000; stroke-opacity:1;
stroke-linecap:round; stroke-linejoin:round;">
<text x="64500.000000" y="52900.000000"
textLength="2226.653543" font-size="666.653543" lengthAdjust="spacingAndGlyphs"
text-anchor="middle" opacity="0">Tacho</text>
<g class="stroked-text"><desc>Tacho</desc>
<path d="M63464 52376
L63750 52376
" />
<path d="M63607 52876
L63607 52376
" />
<path d="M64130 52876
L64130 52614
L64107 52566
L64059 52542
L63964 52542
L63916 52566
" />
<path d="M64130 52852
L64083 52876
L63964 52876
L63916 52852
L63892 52804
L63892 52757
L63916 52709
L63964 52685
L64083 52685
L64130 52661
" />
<path d="M64583 52852
L64535 52876
L64440 52876
L64392 52852
L64369 52828
L64345 52780
L64345 52638
L64369 52590
L64392 52566
L64440 52542
L64535 52542
L64583 52566
" />
<path d="M64797 52876
L64797 52376
" />
<path d="M65011 52876
L65011 52614
L64988 52566
L64940 52542
L64869 52542
L64821 52566
L64797 52590
" />
<path d="M65321 52876
L65273 52852
L65250 52828
L65226 52780
L65226 52638
L65250 52590
L65273 52566
L65321 52542
L65392 52542
L65440 52566
L65464 52590
L65488 52638
L65488 52780
L65464 52828
L65440 52852
L65392 52876
L65321 52876
" />
</g></g>
<g style="fill:#A90000; fill-opacity:0.0;
stroke:#A90000; stroke-width:60.000000; stroke-opacity:1;
stroke-linecap:round; stroke-linejoin:round;">
<text x="64500.000000" y="53600.000000"
textLength="536.181102" font-size="666.653543" lengthAdjust="spacingAndGlyphs"
text-anchor="middle" opacity="0">3</text>
<g class="stroked-text"><desc>3</desc>
<path d="M64333 53076
L64642 53076
L64476 53266
L64547 53266
L64595 53290
L64619 53314
L64642 53361
L64642 53480
L64619 53528
L64595 53552
L64547 53576
L64404 53576
L64357 53552
L64333 53528
" />
</g></g>
<g style="fill:#840000; fill-opacity:0.0;
stroke:#840000; stroke-width:60.000000; stroke-opacity:1;
stroke-linecap:round; stroke-linejoin:round;">
<path d="M65000 51000
L64000 51000
" />
</g>
<g style="fill:#006464; fill-opacity:0.0;
stroke:#006464; stroke-width:60.000000; stroke-opacity:1;
stroke-linecap:round; stroke-linejoin:round;">
<text x="64500.000000" y="50900.000000"
textLength="1702.874016" font-size="666.653543" lengthAdjust="spacingAndGlyphs"
text-anchor="middle" opacity="0">PWM</text>
<g class="stroked-text"><desc>PWM</desc>
<path d="M63797 50876
L63797 50376
L63988 50376
L64035 50400
L64059 50423
L64083 50471
L64083 50542
L64059 50590
L64035 50614
L63988 50638
L63797 50638
" />
<path d="M64250 50376
L64369 50876
L64464 50519
L64559 50876
L64678 50376
" />
<path d="M64869 50876
L64869 50376
L65035 50733
L65202 50376
L65202 50876
" />
</g></g>
<g style="fill:#A90000; fill-opacity:0.0;
stroke:#A90000; stroke-width:60.000000; stroke-opacity:1;
stroke-linecap:round; stroke-linejoin:round;">
<text x="64500.000000" y="51600.000000"
textLength="536.181102" font-size="666.653543" lengthAdjust="spacingAndGlyphs"
text-anchor="middle" opacity="0">4</text>
<g class="stroked-text"><desc>4</desc>
<path d="M64595 51242
L64595 51576
" />
<path d="M64476 51052
L64357 51409
L64666 51409
" />
</g></g>
<g style="fill:#006464; fill-opacity:0.0;
stroke:#006464; stroke-width:60.000000; stroke-opacity:1;
stroke-linecap:round; stroke-linejoin:round;">
<text x="69959.803150" y="51749.921260"
textLength="1917.125984" font-size="666.653543" lengthAdjust="spacingAndGlyphs"
text-anchor="middle" opacity="0">FAN1</text>
<g class="stroked-text"><desc>FAN1</desc>
<path d="M69316 51464
L69150 51464
" />
<path d="M69150 51726
L69150 51226
L69388 51226
" />
<path d="M69555 51583
L69793 51583
" />
<path d="M69507 51726
L69674 51226
L69840 51726
" />
<path d="M70007 51726
L70007 51226
L70293 51726
L70293 51226
" />
<path d="M70793 51726
L70507 51726
" />
<path d="M70650 51726
L70650 51226
L70602 51297
L70555 51345
L70507 51368
" />
</g><text x="70697.913386" y="52749.921260"
textLength="3393.346457" font-size="666.653543" lengthAdjust="spacingAndGlyphs"
text-anchor="middle" opacity="0">Fan_4pin</text>
<g class="stroked-text"><desc>Fan_4pin</desc>
<path d="M69316 52464
L69150 52464
" />
<path d="M69150 52726
L69150 52226
L69388 52226
" />
<path d="M69793 52726
L69793 52464
L69769 52416
L69721 52392
L69626 52392
L69578 52416
" />
<path d="M69793 52702
L69745 52726
L69626 52726
L69578 52702
L69555 52654
L69555 52607
L69578 52559
L69626 52535
L69745 52535
L69793 52511
" />
<path d="M70031 52392
L70031 52726
" />
<path d="M70031 52440
L70055 52416
L70102 52392
L70174 52392
L70221 52416
L70245 52464
L70245 52726
" />
<path d="M70364 52773
L70745 52773
" />
<path d="M71078 52392
L71078 52726
" />
<path d="M70959 52202
L70840 52559
L71150 52559
" />
<path d="M71340 52392
L71340 52892
" />
<path d="M71340 52416
L71388 52392
L71483 52392
L71531 52416
L71555 52440
L71578 52487
L71578 52630
L71555 52678
L71531 52702
L71483 52726
L71388 52726
L71340 52702
" />
<path d="M71793 52726
L71793 52392
" />
<path d="M71793 52226
L71769 52249
L71793 52273
L71816 52249
L71793 52226
L71793 52273
" />
<path d="M72031 52392
L72031 52726
" />
<path d="M72031 52440
L72055 52416
L72102 52392
L72174 52392
L72221 52416
L72245 52464
L72245 52726
" />
</g></g>
</g>
<g style="fill:#006464; fill-opacity:0.0;
stroke:#006464; stroke-width:60.000000; stroke-opacity:1;
stroke-linecap:round; stroke-linejoin:round;">
<g >
</g>
<g style="fill:#840000; fill-opacity:0.0;
stroke:#840000; stroke-width:60.000000; stroke-opacity:1;
stroke-linecap:round; stroke-linejoin:round;">
</g>
<g style="fill:#840000; fill-opacity:0.0;
stroke:#840000; stroke-width:100.000000; stroke-opacity:1;
stroke-linecap:round; stroke-linejoin:round;">
<rect x="59100.000000" y="47500.000000" width="800.000000" height="2000.000000" rx="0.000000" />
</g>
<g style="fill:#840000; fill-opacity:0.0;
stroke:#840000; stroke-width:60.000000; stroke-opacity:1;
stroke-linecap:round; stroke-linejoin:round;">
<path d="M59500 47500
L59500 47000
" />
<path d="M59500 49500
L59500 50000
" />
</g>
<g style="fill:#006464; fill-opacity:0.0;
stroke:#006464; stroke-width:60.000000; stroke-opacity:1;
stroke-linecap:round; stroke-linejoin:round;">
<text x="61019.330709" y="48249.960630"
textLength="1036.181102" font-size="666.653543" lengthAdjust="spacingAndGlyphs"
text-anchor="middle" opacity="0">R3</text>
<g class="stroked-text"><desc>R3</desc>
<path d="M60935 48226
L60769 47988
" />
<path d="M60650 48226
L60650 47726
L60840 47726
L60888 47749
L60912 47773
L60935 47821
L60935 47892
L60912 47940
L60888 47964
L60840 47988
L60650 47988
" />
<path d="M61102 47726
L61412 47726
L61245 47916
L61316 47916
L61364 47940
L61388 47964
L61412 48011
L61412 48130
L61388 48178
L61364 48202
L61316 48226
L61174 48226
L61126 48202
L61102 48178
" />
</g><text x="61245.551181" y="49249.960630"
textLength="1488.582677" font-size="666.653543" lengthAdjust="spacingAndGlyphs"
text-anchor="middle" opacity="0">330</text>
<g class="stroked-text"><desc>330</desc>
<path d="M60602 48726
L60912 48726
L60745 48916
L60816 48916
L60864 48940
L60888 48964
L60912 49011
L60912 49130
L60888 49178
L60864 49202
L60816 49226
L60674 49226
L60626 49202
L60602 49178
" />
<path d="M61078 48726
L61388 48726
L61221 48916
L61293 48916
L61340 48940
L61364 48964
L61388 49011
L61388 49130
L61364 49178
L61340 49202
L61293 49226
L61150 49226
L61102 49202
L61078 49178
" />
<path d="M61697 48726
L61745 48726
L61793 48749
L61816 48773
L61840 48821
L61864 48916
L61864 49035
L61840 49130
L61816 49178
L61793 49202
L61745 49226
L61697 49226
L61650 49202
L61626 49178
L61602 49130
L61578 49035
L61578 48916
L61602 48821
L61626 48773
L61650 48749
L61697 48726
" />
</g></g>
</g>
<g style="fill:#006464; fill-opacity:0.0;
stroke:#006464; stroke-width:60.000000; stroke-opacity:1;
stroke-linecap:round; stroke-linejoin:round;">
<g >
</g>
<g style="fill:#840000; fill-opacity:0.0;
stroke:#840000; stroke-width:60.000000; stroke-opacity:1;
stroke-linecap:round; stroke-linejoin:round;">
<path style="fill:#840000; fill-opacity:0.0;
stroke:#840000; stroke-width:60.000000; stroke-opacity:1;
stroke-linecap:round; stroke-linejoin:round;fill:none"
d="M 80000.000000,47500.000000
80000.000000,48000.000000
80500.000000,48000.000000
80000.000000,48500.000000
79500.000000,48000.000000
80000.000000,48000.000000
" />
</g>
<g style="fill:#006464; fill-opacity:0.0;
stroke:#006464; stroke-width:60.000000; stroke-opacity:1;
stroke-linecap:round; stroke-linejoin:round;">
<text x="80000.000000" y="49750.000000"
textLength="1583.818898" font-size="666.653543" lengthAdjust="spacingAndGlyphs"
text-anchor="middle" opacity="0">GND</text>
<g class="stroked-text"><desc>GND</desc>
<path d="M79619 49250
L79571 49226
L79500 49226
L79428 49250
L79380 49297
L79357 49345
L79333 49440
L79333 49511
L79357 49607
L79380 49654
L79428 49702
L79500 49726
L79547 49726
L79619 49702
L79642 49678
L79642 49511
L79547 49511
" />
<path d="M79857 49726
L79857 49226
L80142 49726
L80142 49226
" />
<path d="M80380 49726
L80380 49226
L80500 49226
L80571 49250
L80619 49297
L80642 49345
L80666 49440
L80666 49511
L80642 49607
L80619 49654
L80571 49702
L80500 49726
L80380 49726
" />
</g></g>
</g>
<g style="fill:#006464; fill-opacity:0.0;
stroke:#006464; stroke-width:60.000000; stroke-opacity:1;
stroke-linecap:round; stroke-linejoin:round;">
<g >
</g>
<g style="fill:#840000; fill-opacity:0.0;
stroke:#840000; stroke-width:60.000000; stroke-opacity:1;
stroke-linecap:round; stroke-linejoin:round;">
</g>
<g style="fill:#FFFFC2; fill-opacity:0.0;
stroke:#FFFFC2; stroke-width:60.000000; stroke-opacity:1;
stroke-linecap:round; stroke-linejoin:round;">
</g>
<g style="fill:#FFFFC2; fill-opacity:0.6;
stroke:#FFFFC2; stroke-width:0.039370; stroke-opacity:1;
stroke-linecap:round; stroke-linejoin:round;">
<rect x="55000.000000" y="35000.000000" width="6000.000000" height="4000.000000" rx="0.000000" />
</g>
<g style="fill:#840000; fill-opacity:0.6;
stroke:#840000; stroke-width:0.039370; stroke-opacity:1;
stroke-linecap:round; stroke-linejoin:round;">
</g>
<g style="fill:#840000; fill-opacity:0.0;
stroke:#840000; stroke-width:100.000000; stroke-opacity:1;
stroke-linecap:round; stroke-linejoin:round;">
<rect x="55000.000000" y="35000.000000" width="6000.000000" height="4000.000000" rx="0.000000" />
<rect x="55000.000000" y="35000.000000" width="6000.000000" height="4000.000000" rx="0.000000" />
</g>
<g style="fill:#840000; fill-opacity:0.0;
stroke:#840000; stroke-width:60.000000; stroke-opacity:1;
stroke-linecap:round; stroke-linejoin:round;">
<path d="M55000 37000
L53000 37000
" />
</g>
<g style="fill:#006464; fill-opacity:0.0;
stroke:#006464; stroke-width:60.000000; stroke-opacity:1;
stroke-linecap:round; stroke-linejoin:round;">
<text x="55200.000000" y="37250.000000"
textLength="1488.582677" font-size="666.653543" lengthAdjust="spacingAndGlyphs"
text-anchor="start" opacity="0">VCC</text>
<g class="stroked-text"><desc>VCC</desc>
<path d="M55277 36726
L55444 37226
L55610 36726
" />
<path d="M56063 37178
L56039 37202
L55968 37226
L55920 37226
L55849 37202
L55801 37154
L55777 37107
L55753 37011
L55753 36940
L55777 36845
L55801 36797
L55849 36750
L55920 36726
L55968 36726
L56039 36750
L56063 36773
" />
<path d="M56563 37178
L56539 37202
L56468 37226
L56420 37226
L56349 37202
L56301 37154
L56277 37107
L56253 37011
L56253 36940
L56277 36845
L56301 36797
L56349 36750
L56420 36726
L56468 36726
L56539 36750
L56563 36773
" />
</g></g>
<g style="fill:#A90000; fill-opacity:0.0;
stroke:#A90000; stroke-width:60.000000; stroke-opacity:1;
stroke-linecap:round; stroke-linejoin:round;">
<text x="54000.000000" y="36900.000000"
textLength="1012.362205" font-size="666.653543" lengthAdjust="spacingAndGlyphs"
text-anchor="middle" opacity="0">14</text>
<g class="stroked-text"><desc>14</desc>
<path d="M53904 36876
L53619 36876
" />
<path d="M53761 36876
L53761 36376
L53714 36447
L53666 36495
L53619 36519
" />
<path d="M54333 36542
L54333 36876
" />
<path d="M54214 36352
L54095 36709
L54404 36709
" />
</g></g>
<g style="fill:#840000; fill-opacity:0.0;
stroke:#840000; stroke-width:60.000000; stroke-opacity:1;
stroke-linecap:round; stroke-linejoin:round;">
<path d="M61000 37000
L63000 37000
" />
</g>
<g style="fill:#006464; fill-opacity:0.0;
stroke:#006464; stroke-width:60.000000; stroke-opacity:1;
stroke-linecap:round; stroke-linejoin:round;">
<text x="60800.000000" y="37250.000000"
textLength="1583.818898" font-size="666.653543" lengthAdjust="spacingAndGlyphs"
text-anchor="end" opacity="0">GND</text>
<g class="stroked-text"><desc>GND</desc>
<path d="M59627 36750
L59579 36726
L59508 36726
L59436 36750
L59389 36797
L59365 36845
L59341 36940
L59341 37011
L59365 37107
L59389 37154
L59436 37202
L59508 37226
L59555 37226
L59627 37202
L59650 37178
L59650 37011
L59555 37011
" />
<path d="M59865 37226
L59865 36726
L60150 37226
L60150 36726
" />
<path d="M60389 37226
L60389 36726
L60508 36726
L60579 36750
L60627 36797
L60650 36845
L60674 36940
L60674 37011
L60650 37107
L60627 37154
L60579 37202
L60508 37226
L60389 37226
" />
</g></g>
<g style="fill:#A90000; fill-opacity:0.0;
stroke:#A90000; stroke-width:60.000000; stroke-opacity:1;
stroke-linecap:round; stroke-linejoin:round;">
<text x="62000.000000" y="36900.000000"
textLength="536.181102" font-size="666.653543" lengthAdjust="spacingAndGlyphs"
text-anchor="middle" opacity="0">7</text>
<g class="stroked-text"><desc>7</desc>
<path d="M61833 36376
L62166 36376
L61952 36876
" />
</g></g>
<g style="fill:#006464; fill-opacity:0.0;
stroke:#006464; stroke-width:60.000000; stroke-opacity:1;
stroke-linecap:round; stroke-linejoin:round;">
<text x="58000.000000" y="33249.960630"
textLength="3107.637795" font-size="666.653543" lengthAdjust="spacingAndGlyphs"
text-anchor="middle" opacity="0">CMOS1G</text>
<g class="stroked-text"><desc>CMOS1G</desc>
<path d="M56880 33178
L56857 33202
L56785 33226
L56738 33226
L56666 33202
L56619 33154
L56595 33107
L56571 33011
L56571 32940
L56595 32845
L56619 32797
L56666 32749
L56738 32726
L56785 32726
L56857 32749
L56880 32773
" />
<path d="M57095 33226
L57095 32726
L57261 33083
L57428 32726
L57428 33226
" />
<path d="M57761 32726
L57857 32726
L57904 32749
L57952 32797
L57976 32892
L57976 33059
L57952 33154
L57904 33202
L57857 33226
L57761 33226
L57714 33202
L57666 33154
L57642 33059
L57642 32892
L57666 32797
L57714 32749
L57761 32726
" />
<path d="M58166 33202
L58238 33226
L58357 33226
L58404 33202
L58428 33178
L58452 33130
L58452 33083
L58428 33035
L58404 33011
L58357 32988
L58261 32964
L58214 32940
L58190 32916
L58166 32868
L58166 32821
L58190 32773
L58214 32749
L58261 32726
L58380 32726
L58452 32749
" />
<path d="M58928 33226
L58642 33226
" />
<path d="M58785 33226
L58785 32726
L58738 32797
L58690 32845
L58642 32868
" />
<path d="M59404 32749
L59357 32726
L59285 32726
L59214 32749
L59166 32797
L59142 32845
L59119 32940
L59119 33011
L59142 33107
L59166 33154
L59214 33202
L59285 33226
L59333 33226
L59404 33202
L59428 33178
L59428 33011
L59333 33011
" />
</g><text x="58000.000000" y="34249.960630"
textLength="2988.582677" font-size="666.653543" lengthAdjust="spacingAndGlyphs"
text-anchor="middle" opacity="0">74HC04</text>
<g class="stroked-text"><desc>74HC04</desc>
<path d="M56607 33726
L56940 33726
L56726 34226
" />
<path d="M57345 33892
L57345 34226
" />
<path d="M57226 33702
L57107 34059
L57416 34059
" />
<path d="M57607 34226
L57607 33726
" />
<path d="M57607 33964
L57892 33964
" />
<path d="M57892 34226
L57892 33726
" />
<path d="M58416 34178
L58392 34202
L58321 34226
L58273 34226
L58202 34202
L58154 34154
L58130 34107
L58107 34011
L58107 33940
L58130 33845
L58154 33797
L58202 33749
L58273 33726
L58321 33726
L58392 33749
L58416 33773
" />
<path d="M58726 33726
L58773 33726
L58821 33749
L58845 33773
L58869 33821
L58892 33916
L58892 34035
L58869 34130
L58845 34178
L58821 34202
L58773 34226
L58726 34226
L58678 34202
L58654 34178
L58630 34130
L58607 34035
L58607 33916
L58630 33821
L58654 33773
L58678 33749
L58726 33726
" />
<path d="M59321 33892
L59321 34226
" />
<path d="M59202 33702
L59083 34059
L59392 34059
" />
</g></g>
</g>
<g style="fill:#006464; fill-opacity:0.0;
stroke:#006464; stroke-width:60.000000; stroke-opacity:1;
stroke-linecap:round; stroke-linejoin:round;">
<g >
</g>
<g style="fill:#840000; fill-opacity:0.0;
stroke:#840000; stroke-width:60.000000; stroke-opacity:1;
stroke-linecap:round; stroke-linejoin:round;">
</g>
<g style="fill:#FFFFC2; fill-opacity:0.0;
stroke:#FFFFC2; stroke-width:60.000000; stroke-opacity:1;
stroke-linecap:round; stroke-linejoin:round;">
</g>
<g style="fill:#FFFFC2; fill-opacity:0.6;
stroke:#FFFFC2; stroke-width:0.039370; stroke-opacity:1;
stroke-linecap:round; stroke-linejoin:round;">
<path style="fill:#FFFFC2; fill-opacity:0.6;
stroke:#FFFFC2; stroke-width:0.039370; stroke-opacity:1;
stroke-linecap:round; stroke-linejoin:round;fill-rule:evenodd;"
d="M 55000.000000,45500.000000
55000.000000,48500.000000
58000.000000,47000.000000
Z" />
</g>
<g style="fill:#840000; fill-opacity:0.6;
stroke:#840000; stroke-width:0.039370; stroke-opacity:1;
stroke-linecap:round; stroke-linejoin:round;">
</g>
<g style="fill:#840000; fill-opacity:0.0;
stroke:#840000; stroke-width:100.000000; stroke-opacity:1;
stroke-linecap:round; stroke-linejoin:round;">
<path style="fill:#840000; fill-opacity:0.0;
stroke:#840000; stroke-width:100.000000; stroke-opacity:1;
stroke-linecap:round; stroke-linejoin:round;fill:none"
d="M 55000.000000,45500.000000
55000.000000,48500.000000
58000.000000,47000.000000
Z" />
<path style="fill:#840000; fill-opacity:0.0;
stroke:#840000; stroke-width:100.000000; stroke-opacity:1;
stroke-linecap:round; stroke-linejoin:round;fill:none"
d="M 55000.000000,45500.000000
55000.000000,48500.000000
58000.000000,47000.000000
Z" />
</g>
<g style="fill:#840000; fill-opacity:0.0;
stroke:#840000; stroke-width:60.000000; stroke-opacity:1;
stroke-linecap:round; stroke-linejoin:round;">
<path d="M55000 47000
L53500 47000
" />
</g>
<g style="fill:#A90000; fill-opacity:0.0;
stroke:#A90000; stroke-width:60.000000; stroke-opacity:1;
stroke-linecap:round; stroke-linejoin:round;">
<text x="54250.000000" y="46900.000000"
textLength="536.181102" font-size="666.653543" lengthAdjust="spacingAndGlyphs"
text-anchor="middle" opacity="0">1</text>
<g class="stroked-text"><desc>1</desc>
<path d="M54392 46876
L54107 46876
" />
<path d="M54250 46876
L54250 46376
L54202 46447
L54154 46495
L54107 46519
" />
</g></g>
<g style="fill:#840000; fill-opacity:0.0;
stroke:#840000; stroke-width:60.000000; stroke-opacity:1;
stroke-linecap:round; stroke-linejoin:round;">
<circle cx="58250.000000" cy="47000.000000" r="250.000000" />
<path d="M58500 47000
L59500 47000
" />
</g>
<g style="fill:#A90000; fill-opacity:0.0;
stroke:#A90000; stroke-width:60.000000; stroke-opacity:1;
stroke-linecap:round; stroke-linejoin:round;">
<text x="58750.000000" y="46900.000000"
textLength="536.181102" font-size="666.653543" lengthAdjust="spacingAndGlyphs"
text-anchor="middle" opacity="0">2</text>
<g class="stroked-text"><desc>2</desc>
<path d="M58607 46423
L58630 46400
L58678 46376
L58797 46376
L58845 46400
L58869 46423
L58892 46471
L58892 46519
L58869 46590
L58583 46876
L58892 46876
" />
</g></g>
<g style="fill:#006464; fill-opacity:0.0;
stroke:#006464; stroke-width:60.000000; stroke-opacity:1;
stroke-linecap:round; stroke-linejoin:round;">
<text x="56500.000000" y="43750.000000"
textLength="3036.181102" font-size="666.653543" lengthAdjust="spacingAndGlyphs"
text-anchor="middle" opacity="0">CMOS1A</text>
<g class="stroked-text"><desc>CMOS1A</desc>
<path d="M55416 43678
L55392 43702
L55321 43726
L55273 43726
L55202 43702
L55154 43654
L55130 43607
L55107 43511
L55107 43440
L55130 43345
L55154 43297
L55202 43250
L55273 43226
L55321 43226
L55392 43250
L55416 43273
" />
<path d="M55630 43726
L55630 43226
L55797 43583
L55964 43226
L55964 43726
" />
<path d="M56297 43226
L56392 43226
L56440 43250
L56488 43297
L56511 43392
L56511 43559
L56488 43654
L56440 43702
L56392 43726
L56297 43726
L56250 43702
L56202 43654
L56178 43559
L56178 43392
L56202 43297
L56250 43250
L56297 43226
" />
<path d="M56702 43702
L56773 43726
L56892 43726
L56940 43702
L56964 43678
L56988 43630
L56988 43583
L56964 43535
L56940 43511
L56892 43488
L56797 43464
L56750 43440
L56726 43416
L56702 43369
L56702 43321
L56726 43273
L56750 43250
L56797 43226
L56916 43226
L56988 43250
" />
<path d="M57464 43726
L57178 43726
" />
<path d="M57321 43726
L57321 43226
L57273 43297
L57226 43345
L57178 43369
" />
<path d="M57654 43583
L57892 43583
" />
<path d="M57607 43726
L57773 43226
L57940 43726
" />
</g><text x="56500.000000" y="44750.000000"
textLength="2988.582677" font-size="666.653543" lengthAdjust="spacingAndGlyphs"
text-anchor="middle" opacity="0">74HC04</text>
<g class="stroked-text"><desc>74HC04</desc>
<path d="M55107 44226
L55440 44226
L55226 44726
" />
<path d="M55845 44392
L55845 44726
" />
<path d="M55726 44202
L55607 44559
L55916 44559
" />
<path d="M56107 44726
L56107 44226
" />
<path d="M56107 44464
L56392 44464
" />
<path d="M56392 44726
L56392 44226
" />
<path d="M56916 44678
L56892 44702
L56821 44726
L56773 44726
L56702 44702
L56654 44654
L56630 44607
L56607 44511
L56607 44440
L56630 44345
L56654 44297
L56702 44250
L56773 44226
L56821 44226
L56892 44250
L56916 44273
" />
<path d="M57226 44226
L57273 44226
L57321 44250
L57345 44273
L57369 44321
L57392 44416
L57392 44535
L57369 44630
L57345 44678
L57321 44702
L57273 44726
L57226 44726
L57178 44702
L57154 44678
L57130 44630
L57107 44535
L57107 44416
L57130 44321
L57154 44273
L57178 44250
L57226 44226
" />
<path d="M57821 44392
L57821 44726
" />
<path d="M57702 44202
L57583 44559
L57892 44559
" />
</g></g>
</g>
<g style="fill:#006464; fill-opacity:0.0;
stroke:#006464; stroke-width:60.000000; stroke-opacity:1;
stroke-linecap:round; stroke-linejoin:round;">
<g >
</g>
<g style="fill:#840000; fill-opacity:0.0;
stroke:#840000; stroke-width:60.000000; stroke-opacity:1;
stroke-linecap:round; stroke-linejoin:round;">
</g>
<g style="fill:#840000; fill-opacity:0.0;
stroke:#840000; stroke-width:100.000000; stroke-opacity:1;
stroke-linecap:round; stroke-linejoin:round;">
<rect x="47100.000000" y="24500.000000" width="800.000000" height="2000.000000" rx="0.000000" />
</g>
<g style="fill:#840000; fill-opacity:0.0;
stroke:#840000; stroke-width:60.000000; stroke-opacity:1;
stroke-linecap:round; stroke-linejoin:round;">
<path d="M47500 24500
L47500 24000
" />
<path d="M47500 26500
L47500 27000
" />
</g>
<g style="fill:#006464; fill-opacity:0.0;
stroke:#006464; stroke-width:60.000000; stroke-opacity:1;
stroke-linecap:round; stroke-linejoin:round;">
<text x="49019.330709" y="25249.960630"
textLength="1036.181102" font-size="666.653543" lengthAdjust="spacingAndGlyphs"
text-anchor="middle" opacity="0">R2</text>
<g class="stroked-text"><desc>R2</desc>
<path d="M48935 25226
L48769 24988
" />
<path d="M48650 25226
L48650 24726
L48840 24726
L48888 24749
L48912 24773
L48935 24821
L48935 24892
L48912 24940
L48888 24964
L48840 24988
L48650 24988
" />
<path d="M49126 24773
L49150 24749
L49197 24726
L49316 24726
L49364 24749
L49388 24773
L49412 24821
L49412 24868
L49388 24940
L49102 25226
L49412 25226
" />
</g><text x="49209.803150" y="26249.960630"
textLength="1417.125984" font-size="666.653543" lengthAdjust="spacingAndGlyphs"
text-anchor="middle" opacity="0">10k</text>
<g class="stroked-text"><desc>10k</desc>
<path d="M48912 26226
L48626 26226
" />
<path d="M48769 26226
L48769 25726
L48721 25797
L48674 25845
L48626 25868
" />
<path d="M49221 25726
L49269 25726
L49316 25749
L49340 25773
L49364 25821
L49388 25916
L49388 26035
L49364 26130
L49340 26178
L49316 26202
L49269 26226
L49221 26226
L49174 26202
L49150 26178
L49126 26130
L49102 26035
L49102 25916
L49126 25821
L49150 25773
L49174 25749
L49221 25726
" />
<path d="M49602 26226
L49602 25726
" />
<path d="M49650 26035
L49793 26226
" />
<path d="M49793 25892
L49602 26083
" />
</g></g>
</g>
<g style="fill:#006464; fill-opacity:0.0;
stroke:#006464; stroke-width:60.000000; stroke-opacity:1;
stroke-linecap:round; stroke-linejoin:round;">
<g >
</g>
<g style="fill:#840000; fill-opacity:0.0;
stroke:#840000; stroke-width:60.000000; stroke-opacity:1;
stroke-linecap:round; stroke-linejoin:round;">
<path style="fill:#840000; fill-opacity:0.0;
stroke:#840000; stroke-width:60.000000; stroke-opacity:1;
stroke-linecap:round; stroke-linejoin:round;fill:none"
d="M 42200.000000,54500.000000
42500.000000,54000.000000
" />
<path style="fill:#840000; fill-opacity:0.0;
stroke:#840000; stroke-width:60.000000; stroke-opacity:1;
stroke-linecap:round; stroke-linejoin:round;fill:none"
d="M 42500.000000,55000.000000
42500.000000,54000.000000
" />
<path style="fill:#840000; fill-opacity:0.0;
stroke:#840000; stroke-width:60.000000; stroke-opacity:1;
stroke-linecap:round; stroke-linejoin:round;fill:none"
d="M 42500.000000,54000.000000
42800.000000,54500.000000
" />
</g>
<g style="fill:#006464; fill-opacity:0.0;
stroke:#006464; stroke-width:60.000000; stroke-opacity:1;
stroke-linecap:round; stroke-linejoin:round;">
<text x="42500.000000" y="53250.000000"
textLength="2060.000000" font-size="666.653543" lengthAdjust="spacingAndGlyphs"
text-anchor="middle" opacity="0">+12V</text>
<g class="stroked-text"><desc>+12V</desc>
<path d="M41619 53035
L42000 53035
" />
<path d="M41809 53226
L41809 52845
" />
<path d="M42500 53226
L42214 53226
" />
<path d="M42357 53226
L42357 52726
L42309 52797
L42261 52845
L42214 52869
" />
<path d="M42690 52773
L42714 52750
L42761 52726
L42880 52726
L42928 52750
L42952 52773
L42976 52821
L42976 52869
L42952 52940
L42666 53226
L42976 53226
" />
<path d="M43119 52726
L43285 53226
L43452 52726
" />
</g></g>
</g>
<g style="fill:#006464; fill-opacity:0.0;
stroke:#006464; stroke-width:62.519685; stroke-opacity:1;
stroke-linecap:round; stroke-linejoin:round;">
</g>
<g style="fill:#006464; fill-opacity:0.0;
stroke:#006464; stroke-width:60.000000; stroke-opacity:1;
stroke-linecap:round; stroke-linejoin:round;">
</g>
<g style="fill:#0F0F0F; fill-opacity:0.0;
stroke:#0F0F0F; stroke-width:60.000000; stroke-opacity:1;
stroke-linecap:round; stroke-linejoin:round;">
<text x="42500.000000" y="23362.480315"
textLength="3321.889764" font-size="666.653543" lengthAdjust="spacingAndGlyphs"
text-anchor="start" opacity="0">ONEWIRE</text>
<g class="stroked-text"><desc>ONEWIRE</desc>
<path d="M42744 22838
L42839 22838
L42887 22862
L42934 22910
L42958 23005
L42958 23171
L42934 23267
L42887 23314
L42839 23338
L42744 23338
L42696 23314
L42649 23267
L42625 23171
L42625 23005
L42649 22910
L42696 22862
L42744 22838
" />
<path d="M43172 23338
L43172 22838
L43458 23338
L43458 22838
" />
<path d="M43696 23076
L43863 23076
" />
<path d="M43934 23338
L43696 23338
L43696 22838
L43934 22838
" />
<path d="M44101 22838
L44220 23338
L44315 22981
L44410 23338
L44530 22838
" />
<path d="M44720 23338
L44720 22838
" />
<path d="M45244 23338
L45077 23100
" />
<path d="M44958 23338
L44958 22838
L45149 22838
L45196 22862
L45220 22886
L45244 22933
L45244 23005
L45220 23052
L45196 23076
L45149 23100
L44958 23100
" />
<path d="M45458 23076
L45625 23076
" />
<path d="M45696 23338
L45458 23338
L45458 22838
L45696 22838
" />
</g></g>
<g style="fill:#0F0F0F; fill-opacity:0.0;
stroke:#0F0F0F; stroke-width:62.519685; stroke-opacity:1;
stroke-linecap:round; stroke-linejoin:round;">
</g>
<g style="fill:#0F0F0F; fill-opacity:0.0;
stroke:#0F0F0F; stroke-width:60.000000; stroke-opacity:1;
stroke-linecap:round; stroke-linejoin:round;">
<text x="42500.000000" y="49862.480315"
textLength="2107.637795" font-size="666.653543" lengthAdjust="spacingAndGlyphs"
text-anchor="start" opacity="0">RPM1</text>
<g class="stroked-text"><desc>RPM1</desc>
<path d="M42934 49838
L42768 49600
" />
<path d="M42649 49838
L42649 49338
L42839 49338
L42887 49362
L42910 49386
L42934 49433
L42934 49505
L42910 49552
L42887 49576
L42839 49600
L42649 49600
" />
<path d="M43149 49838
L43149 49338
L43339 49338
L43387 49362
L43410 49386
L43434 49433
L43434 49505
L43410 49552
L43387 49576
L43339 49600
L43149 49600
" />
<path d="M43649 49838
L43649 49338
L43815 49695
L43982 49338
L43982 49838
" />
<path d="M44482 49838
L44196 49838
" />
<path d="M44339 49838
L44339 49338
L44291 49410
L44244 49457
L44196 49481
" />
</g></g>
<g style="fill:#009600; fill-opacity:0.0;
stroke:#009600; stroke-width:60.000000; stroke-opacity:1;
stroke-linecap:round; stroke-linejoin:round;">
<path d="M55000 28000
L47500 28000
" />
<path d="M45000 28000
L45000 37000
" />
<path d="M45000 37000
L53000 37000
" />
<path d="M42500 37000
L45000 37000
" />
<path d="M67000 47500
L80000 47500
" />
<path d="M61000 28000
L75000 28000
" />
<path d="M75000 28000
L75000 37000
" />
<path d="M58000 25000
L58000 23500
" />
<path d="M63000 37000
L75000 37000
" />
<path d="M57000 50000
L57000 53000
" />
<path d="M42500 55000
L67000 55000
" />
<path d="M47500 28000
L45000 28000
" />
<path d="M80000 37000
L80000 47500
" />
<path d="M75000 37000
L80000 37000
" />
<path d="M47500 23500
L47500 24000
" />
<path d="M67000 50000
L67000 47500
" />
<path d="M42500 50000
L57000 50000
" />
<path d="M47500 43000
L50000 43000
" />
<path d="M42500 43000
L43500 43000
" />
<path d="M53000 43000
L53500 43000
" />
<path d="M59500 50000
L59500 51000
" />
<path d="M59500 51000
L64000 51000
" />
<path d="M53500 43000
L53500 47000
" />
<path d="M57000 53000
L64000 53000
" />
<path d="M42500 23500
L47500 23500
" />
<path d="M47500 27000
L47500 28000
" />
<path d="M47500 23500
L58000 23500
" />
</g>
<g style="fill:#009600; fill-opacity:1.0;
stroke:#009600; stroke-width:60.000000; stroke-opacity:1;
stroke-linecap:round; stroke-linejoin:round;">
<circle cx="47500.000000" cy="28000.000000" r="180.000000" />
<circle cx="47500.000000" cy="23500.000000" r="180.000000" />
<circle cx="80000.000000" cy="47500.000000" r="180.000000" />
<circle cx="45000.000000" cy="37000.000000" r="180.000000" />
<circle cx="75000.000000" cy="37000.000000" r="180.000000" />
</g>
</svg>
